# xmcd CD database file
#
# Track frame offsets:
#	150
#	19651
#	55842
#	63205
#	106275
#	123038
#	154583
#	167609
#	187430
#	196862
#	214712
#	229441
#	250607
#	272271
#
# Disc length: 3879 seconds
#
# Revision: 1
# Processed by: cddbd v1.5.2PL0 Copyright (c) Steve Scherf et al.
# Submitted via: CDex 1.51
#
DISCID=b50f250e
DTITLE=Mike Oldfield - Platinum Collection Disc 1
DYEAR=2006
DGENRE=New Age
TTITLE0=Tubular Bells
TTITLE1=Tubular Bells_
TTITLE2=Sailor's Hornpipe
TTITLE3=Hergest Ridge
TTITLE4=Ommadawn
TTITLE5=Ommadawn_
TTITLE6=In Dulci Jubilo
TTITLE7=Don Alfonso
TTITLE8=Portsmouth
TTITLE9=William Tell Overture
TTITLE10=Cuckoo Song
TTITLE11=Incantations
TTITLE12=Platinum
TTITLE13=Woodhenge
EXTD=YEAR: 2006
EXTT0=
EXTT1=
EXTT2=
EXTT3=
EXTT4=
EXTT5=
EXTT6=
EXTT7=
EXTT8=
EXTT9=
EXTT10=
EXTT11=
EXTT12=
EXTT13=
PLAYORDER=
